<svg width="40" height="40" viewBox="0 0 40 40" fill="none" xmlns="http://www.w3.org/2000/svg">
  <rect width="40" height="40" rx="8" fill="#3a7bd5"/>
  <path d="M20 8C13.373 8 8 13.373 8 20C8 26.627 13.373 32 20 32C26.627 32 32 26.627 32 20C32 13.373 26.627 8 20 8ZM20 12C22.206 12 24 13.794 24 16C24 18.206 22.206 20 20 20C17.794 20 16 18.206 16 16C16 13.794 17.794 12 20 12ZM20 30C16.667 30 13.708 28.458 11.854 26.042C13.771 23.958 16.708 22.667 20 22.667C23.292 22.667 26.229 23.958 28.146 26.042C26.292 28.458 23.333 30 20 30Z" fill="#ffffff"/>
  <path d="M28 13L32 17M28 17L32 13" stroke="#00d2b8" stroke-width="2" stroke-linecap="round"/>
</svg> 